PathFileType	4	(X/Y/Z)	OpenSim_Sub01_EMGBaseline_Accel.trc
DataRate	CameraRate	NumFrames	NumMarkers	Units	OrigDataRate	OrigDataStartFrame	OrigNumFrames
100	100	38	8	m	100	1	7604
Frame#	Time	torso_imu_offset_imu	pelvis_imu_offset_imu	tibia_r_imu_offset_imu	femur_r_imu_offset_imu	tibia_l_imu_offset_imu	femur_l_imu_offset_imu	toes_r_imu_offset_imu	toes_l_imu_offset_imu
				X1	Y1	Z1	X2	Y2	Z2	X3	Y3	Z3	X4	Y4	Z4	X5	Y5	Z5	X6	Y6	Z6	X7	Y7	Z7	X8		Y8	Z8	

1	0	9.01355570	-0.83331292	6.52434202	9.59713222	0.59197565	2.44500440	9.73502314	1.58313148	0.99239718	9.64732028	1.12907664	0.79127132	9.44865992	-2.41160543	0.63077981	9.72275134	0.39173758	-0.93692811	5.44088343	-1.87521272	8.14314429	5.47909840	1.17035720	10.77636220
2	0.01000000	9.02055718	-0.83785749	6.50326055	9.57872359	0.60452782	2.43800479	9.74891833	1.59142172	0.98407416	9.65156519	1.14721990	0.75760596	9.45553997	-2.47505254	0.62329250	9.70499351	0.44923460	-0.98231343	5.44940904	-1.87185535	8.14458483	5.47641497	1.15929799	10.78531574
3	0.02000000	9.03558607	-0.82865611	6.48773085	9.56209852	0.61979554	2.43377462	9.76181113	1.58835854	0.96434511	9.65415398	1.16126585	0.73409182	9.47465758	-2.51518740	0.60821758	9.71007996	0.46682757	-1.00187281	5.45369103	-1.86912903	8.14652523	5.47744061	1.15031521	10.79109341
4	0.03000000	9.05440416	-0.80208771	6.48893139	9.55418171	0.63341160	2.43221945	9.76326454	1.57550447	0.94213578	9.65493107	1.16304435	0.73575260	9.49481200	-2.50319288	0.58808846	9.74215746	0.42649764	-0.98170717	5.44857693	-1.86651013	8.14838007	5.48685193	1.15187162	10.79005532
5	0.04000000	9.07152272	-0.77510121	6.50115696	9.55737713	0.64377626	2.43487514	9.75558789	1.56420395	0.92425027	9.64861800	1.15456665	0.75136480	9.50369948	-2.46458404	0.57297307	9.77050340	0.37743048	-0.95096102	5.44099733	-1.86494764	8.15048226	5.49516455	1.15901509	10.78460597
6	0.05000000	9.08168963	-0.76717920	6.51582562	9.57268516	0.64980552	2.44322073	9.74358650	1.56666968	0.91665283	9.63011893	1.14004200	0.76574418	9.49026683	-2.43342151	0.57343557	9.76089195	0.37738295	-0.94442167	5.43958958	-1.86559171	8.15326070	5.49126591	1.16461516	10.77816327
7	0.06000000	9.08665331	-0.77880981	6.52801865	9.59261007	0.65047639	2.45337524	9.73415037	1.58104537	0.91860979	9.61124209	1.12840266	0.77705329	9.46522475	-2.42132663	0.58662192	9.72314148	0.42644633	-0.96223278	5.44510307	-1.86852856	8.15603978	5.47885600	1.16605897	10.77258776
8	0.07000000	9.09354799	-0.79586272	6.53563759	9.60312103	0.64481364	2.45733445	9.73577041	1.59464769	0.92423287	9.61679731	1.13221160	0.79372402	9.45602830	-2.42264621	0.59935230	9.70096202	0.48032907	-0.97787575	5.45221564	-1.87302498	8.15729422	5.47303231	1.16421151	10.76854109
9	0.08000000	9.10539532	-0.80842902	6.53708477	9.59681885	0.63294628	2.45094088	9.75169380	1.59880431	0.92940102	9.65704130	1.15741689	0.81776898	9.47794593	-2.43028884	0.60296040	9.72075826	0.50448349	-0.97274082	5.45633969	-1.87777234	8.15624195	5.48221487	1.16029246	10.76661687
10	0.09000000	9.11258506	-0.82026076	6.53203510	9.58650947	0.61828084	2.44178243	9.76946423	1.59758894	0.93563843	9.69799350	1.19003342	0.83134144	9.50875464	-2.43420991	0.60298066	9.75492289	0.49670755	-0.95375672	5.45553443	-1.87981475	8.15437423	5.49411106	1.15630961	10.76729824
11	0.10000000	9.10427645	-0.83706588	6.52084588	9.58767824	0.60484354	2.43910072	9.77462393	1.59708629	0.94506834	9.70038816	1.21316439	0.81479115	9.52094468	-2.42490969	0.60703550	9.76797381	0.46144258	-0.93265978	5.44870342	-1.87629690	8.15344931	5.49372059	1.15432125	10.77088839
12	0.11000000	9.08616160	-0.85602618	6.51056453	9.60000730	0.59686616	2.44438935	9.76621059	1.59821122	0.95316051	9.66825562	1.22148908	0.77642115	9.51161774	-2.40921138	0.61470437	9.75601850	0.41305207	-0.92247193	5.44006215	-1.87042508	8.15293160	5.48282871	1.15496055	10.77530379
13	0.12000000	9.07665320	-0.86776081	6.51338213	9.61101730	0.59873669	2.45317799	9.75364862	1.59789966	0.95026770	9.63894519	1.21859775	0.74604594	9.49681827	-2.40649635	0.61937665	9.73947703	0.37353433	-0.93719736	5.43791181	-1.87006843	8.15052070	5.47613754	1.15776351	10.77662517
14	0.13000000	9.08591359	-0.86378856	6.53310570	9.61311461	0.61213461	2.46149415	9.74388485	1.59411704	0.93304263	9.63676855	1.20789780	0.74473082	9.48878319	-2.42687441	0.61622552	9.73257237	0.36071355	-0.98103081	5.44611303	-1.87875004	8.14521549	5.48248762	1.16204046	10.77299310
15	0.14000000	9.09861759	-0.83880306	6.54823644	9.61415257	0.63067919	2.46730046	9.73571036	1.58819200	0.91724906	9.64475030	1.19157217	0.76589919	9.48698795	-2.45194567	0.60619756	9.72925509	0.37942717	-1.02894399	5.45501929	-1.88672254	8.14001060	5.49231496	1.16651504	10.76880900
16	0.15000000	9.09603260	-0.78926337	6.53475254	9.62387795	0.64666358	2.46910199	9.72684403	1.58210411	0.92073330	9.64008349	1.17175324	0.79790024	9.48871122	-2.45928045	0.59150403	9.72062965	0.43056915	-1.05167272	5.45330580	-1.88274051	8.13844849	5.49338580	1.16983485	10.76924548
17	0.16000000	9.07895091	-0.72926208	6.50088677	9.63763616	0.65483577	2.46816664	9.72152399	1.57826896	0.93963371	9.62692098	1.15320420	0.82962668	9.49366541	-2.44502081	0.57730761	9.71129699	0.49195409	-1.03741462	5.44190241	-1.86985471	8.14121552	5.48443270	1.17113301	10.77369399
18	0.17000000	9.06318957	-0.68645887	6.47968995	9.63969174	0.65183559	2.46788828	9.72900244	1.57943667	0.95338403	9.63015951	1.14271194	0.85039263	9.50343442	-2.41960576	0.57104131	9.71624149	0.52364153	-0.98781632	5.43117031	-1.86211657	8.14679927	5.47262940	1.16991655	10.77709724
19	0.18000000	9.05769799	-0.67926642	6.48940959	9.62107422	0.63714884	2.47053124	9.75271499	1.58699416	0.94924077	9.66212479	1.14502398	0.85353436	9.51698913	-2.39426917	0.57791692	9.74252561	0.50048864	-0.91398005	5.42866432	-1.86776889	8.15340681	5.46432700	1.16591538	10.77643888
20	0.19000000	9.04987045	-0.69758379	6.50240939	9.59376183	0.61857321	2.47484107	9.77843044	1.59825201	0.93898201	9.69620312	1.15867357	0.84430727	9.52539297	-2.38151402	0.59637264	9.77287876	0.44267976	-0.85407676	5.43287940	-1.87695375	8.15857975	5.46278695	1.15949311	10.77510709
21	0.20000000	9.02456738	-0.72595978	6.48534598	9.57303061	0.60498042	2.47894608	9.78951174	1.60965061	0.93780904	9.70060791	1.18060387	0.82975477	9.51893364	-2.39318337	0.62313235	9.78655212	0.37860531	-0.84867357	5.44058740	-1.87735104	8.15992184	5.47019918	1.15131115	10.77731734
22	0.21000000	8.98836585	-0.74776867	6.44641466	9.56554905	0.59831790	2.48147353	9.78219644	1.61588653	0.94430724	9.67387339	1.20115748	0.81070035	9.49816654	-2.42773465	0.64800704	9.77806781	0.33404935	-0.89930808	5.44784049	-1.86987328	8.15780749	5.48126753	1.14473310	10.78194649
23	0.22000000	8.96455525	-0.74548879	6.42577375	9.57135835	0.59520300	2.48143525	9.76263392	1.61031748	0.94427664	9.63787215	1.20560153	0.78318309	9.47155182	-2.47332142	0.65549159	9.75370604	0.33277680	-0.97747396	5.45013854	-1.86561590	8.15474334	5.48493729	1.14520026	10.78376370
24	0.23000000	8.96997077	-0.71249779	6.44645503	9.58874916	0.59237894	2.47852012	9.73846437	1.59092875	0.93053444	9.61154301	1.18656679	0.74800374	9.44860387	-2.51834998	0.63715169	9.72341587	0.38159836	-1.05536662	5.44516960	-1.87117430	8.15248040	5.47568257	1.15484478	10.78001854
25	0.24000000	9.00099202	-0.67462823	6.47815685	9.61131718	0.58737028	2.47439939	9.72100015	1.56955848	0.91772619	9.60332324	1.15895241	0.72047772	9.44136543	-2.55276524	0.60596964	9.70714941	0.43710086	-1.10956285	5.43716604	-1.87899409	8.15036133	5.46484610	1.16580727	10.77564495
26	0.25000000	9.04954448	-0.66171352	6.48339172	9.63195595	0.57819899	2.47102766	9.72131609	1.55963927	0.92328569	9.61872659	1.14081916	0.71781809	9.46086388	-2.56705055	0.57842442	9.72467526	0.44906350	-1.11870714	5.43129568	-1.87955619	8.14745726	5.46590448	1.16898535	10.77639586
27	0.26000000	9.09749578	-0.67366740	6.46469346	9.64604107	0.56816754	2.46911479	9.73677423	1.56013804	0.94598093	9.64857330	1.13593100	0.74547905	9.49593934	-2.55548950	0.56406848	9.76534393	0.40434326	-1.08026167	5.42861896	-1.87308865	8.14543890	5.47759740	1.16431907	10.77902037
28	0.27000000	9.11898033	-0.68737842	6.45539358	9.65086051	0.56464024	2.46841181	9.75418361	1.55888975	0.97021343	9.67237857	1.13704720	0.79985570	9.51836080	-2.51529791	0.56711912	9.79509963	0.31834749	-1.00618094	5.42703506	-1.86732067	8.14797657	5.48732321	1.15870762	10.77334151
29	0.28000000	9.10033605	-0.68847141	6.47533431	9.64602541	0.57094732	2.46777735	9.76417788	1.54837009	0.98337942	9.67741582	1.13794688	0.86779938	9.51100477	-2.45282695	0.58760123	9.79196893	0.21754330	-0.91725913	5.42510476	-1.86729562	8.15672032	5.48638055	1.15693039	10.75569975
30	0.29000000	9.06475367	-0.69029024	6.50192159	9.63790369	0.57812149	2.46349164	9.76956191	1.53569513	0.98287172	9.67487560	1.13628076	0.90849530	9.49105767	-2.40134859	0.61349011	9.77166940	0.15907885	-0.85944923	5.42359654	-1.86950278	8.16716446	5.47852432	1.15693598	10.74233113
31	0.30000000	9.04093907	-0.70986473	6.50655510	9.63376885	0.57580641	2.45178237	9.77494100	1.53035192	0.96845857	9.67919700	1.13061697	0.87981784	9.48070073	-2.39659416	0.63114730	9.75571594	0.20072237	-0.87914739	5.42366019	-1.86918595	8.17391273	5.46968378	1.15558564	10.75152217
32	0.31000000	9.03817076	-0.74269456	6.48816002	9.63575195	0.56688049	2.43522382	9.77818976	1.53680194	0.94779642	9.68726259	1.12253988	0.79656428	9.48193687	-2.43662004	0.63612211	9.74809931	0.32464402	-0.95978124	5.42604390	-1.86661717	8.17527358	5.46386352	1.15236750	10.77720086
33	0.32000000	9.05077170	-0.76770978	6.46684685	9.64202503	0.56440585	2.42127367	9.77200542	1.55563560	0.93460973	9.68244680	1.11595459	0.71733803	9.48124083	-2.49048332	0.63103694	9.73932482	0.45482983	-1.03631894	5.43118591	-1.86593755	8.17240738	5.46358530	1.14879195	10.79455178
34	0.33000000	9.07227078	-0.76912822	6.45812683	9.65012987	0.57571800	2.41459971	9.75420573	1.58410336	0.93700968	9.65704954	1.11320239	0.68437684	9.47149246	-2.53041870	0.61906705	9.72574258	0.52889724	-1.06084669	5.43842999	-1.86921103	8.16664088	5.46964248	1.14651489	10.78859121
35	0.34000000	9.09498051	-0.74814652	6.46222567	9.65603812	0.59035797	2.41120646	9.73821932	1.60982719	0.94596413	9.63092448	1.11180055	0.68794076	9.46579093	-2.54031946	0.60449001	9.72210082	0.52941592	-1.04001956	5.44389144	-1.87203359	8.15957716	5.47780607	1.14747016	10.77498232
36	0.35000000	9.11132788	-0.70953395	6.47625086	9.65567470	0.59545491	2.40581880	9.73917206	1.61894512	0.94986790	9.62743128	1.10839417	0.70953962	9.47952749	-2.50774398	0.59196481	9.74466074	0.45027587	-0.99062480	5.44337683	-1.86932127	8.15295691	5.48307373	1.15325534	10.77365218
37	0.36000000	9.11881844	-0.66454703	6.49293890	9.64860870	0.59127587	2.39798028	9.75439902	1.60202698	0.94604086	9.64616475	1.09992334	0.74354607	9.50645507	-2.44283877	0.58880912	9.78142513	0.33039674	-0.93009666	5.43700480	-1.86370876	8.14981470	5.48276598	1.15966833	10.78354612
38	0.37000000	9.11886893	-0.62943212	6.50166372	9.63721461	0.58819839	2.39094357	9.76754511	1.55306115	0.93867328	9.66842934	1.08355673	0.79422683	9.52367605	-2.37313692	0.60438069	9.79865489	0.24334314	-0.87636625	5.42821309	-1.86376920	8.15417841	5.47599309	1.15804627	10.78746345
